<?xml version="1.0" standalone="no"?><!DOCTYPE svg PUBLIC "-//W3C//DTD SVG 1.1//EN" "http://www.w3.org/Graphics/SVG/1.1/DTD/svg11.dtd"><svg t="1703776083003" class="icon" viewBox="0 0 1024 1024" version="1.1" xmlns="http://www.w3.org/2000/svg" p-id="8304" width="2500" height="2500" xmlns:xlink="http://www.w3.org/1999/xlink"><path d="M798.731378 501.805511c0 15.772444 5.259378 26.276978 10.515911 36.792889 10.498844 5.262222 21.020444 10.515911 31.536355 10.515911 15.772444 0 31.544889-5.256533 42.063645-21.031822 5.259378-26.276978 10.498844-63.0784 21.020444-120.911645-31.5392 0-57.827556 10.524444-78.859377 26.2912-15.775289 21.034667-26.276978 42.057956-26.276978 68.343467z m110.392889 162.972445h0.011377c15.761067-21.031822 26.276978-36.804267 36.792889-63.095467 10.518756-21.020444 15.778133-42.052267 21.037511-63.086933 11.184356-55.955911 15.772444-73.133511 15.772445-131.424712 0-21.031822-10.515911-31.542044-26.288356-31.542044s-26.2912 5.259378-42.063644 15.766756v-21.026134c-15.778133-5.256533-26.276978-5.256533-42.055111-5.256533-15.772444 0-36.801422 5.256533-52.565334 10.515911-31.544889 10.510222-57.836089 31.542044-78.856533 57.833244-15.775289 26.282667-21.037511 52.568178-21.037511 78.859378 0 31.536356 5.262222 57.827556 21.037511 73.6 10.501689 21.023289 31.533511 26.276978 52.562489 26.276978 31.5392 0 57.827556-10.501689 78.859378-42.049422h5.262222c-5.262222 31.547733-15.772444 52.565333-31.550578 68.340622-15.761067 10.515911-31.533511 21.031822-47.3088 21.031822-26.2912 0-42.063644-10.513067-57.824711-31.547733-10.515911 15.775289-15.775289 31.547733-15.775289 47.325867 0 10.513067 5.259378 26.276978 21.031822 31.533511 10.504533 10.515911 31.536356 10.515911 52.568178 10.515911 21.0176 0 42.052267 0 63.086934-10.515911 21.026133-10.515911 36.784356-26.279822 47.303111-42.055111z m-262.852267-268.114489v-0.005689c-5.262222 0-10.513067 5.259378-15.775289 5.259378 0-10.515911-5.245156-21.026133-5.245155-31.542045-10.513067-5.256533-21.034667-5.256533-31.550578-5.256533-47.323022 0-84.113067 15.775289-110.404267 42.057955-31.536356 31.547733-42.055111 68.340622-42.055111 110.404267 0 36.795733 10.518756 63.086933 31.536356 84.115911 21.031822 21.020444 47.311644 31.536356 84.118755 31.536356 21.031822 0 36.801422-5.259378 52.565333-10.515911 21.031822-10.515911 36.804267-21.020444 47.323023-31.547734 15.761067-15.761067 26.276978-31.536356 36.792889-52.568178 5.259378-21.020444 10.515911-42.052267 10.515911-68.340622 0-21.026133-5.259378-42.049422-15.772445-52.565333-10.513067-10.524444-26.274133-21.031822-42.049422-21.031822z m-52.568178 63.081244c0-10.515911 15.763911-47.314489 26.276978-52.573867-36.792889 5.259378-63.081244 21.034667-78.859378 47.317334-10.513067 15.775289-15.772444 36.801422-15.772444 57.833244 0 21.0176 5.259378 36.792889 10.515911 47.3088 10.513067 10.515911 21.034667 21.034667 31.544889 21.034667 31.5392 0 52.568178-21.034667 63.086933-57.827556-26.276978-15.789511-36.792889-36.801422-36.792889-63.092622z m-226.070755-105.144889h0.011377c0 10.515911-5.253689 47.317333-15.772444 99.8912-10.518756 57.819022-15.772444 99.882667-15.772444 115.643734 0 21.034667 5.253689 36.807111 10.513066 47.325866 10.515911 10.513067 21.0176 15.772444 36.795734 15.772445 15.772444 0 31.544889-10.515911 52.5824-21.034667-10.518756-10.501689-10.518756-26.288356-10.518756-52.565333 0-26.2912 5.259378-68.340622 15.772444-126.168178 15.763911-57.824711 21.037511-94.631822 21.037512-110.407111 0-10.507378-5.2736-21.031822-10.518756-26.276978-5.2736 0-10.518756-5.262222-21.031822-5.262222-21.031822 0-47.323022 10.510222-84.115911 31.5392l21.0176 31.542044zM99.524267 633.230222c15.775289 0 36.792889-10.515911 52.568177-21.034666 15.772444 10.515911 36.807111 21.034667 68.340623 21.034666 26.2912 0 52.579556-10.515911 73.6-26.288355 26.2912-15.761067 36.807111-36.795733 36.807111-68.343467 0-42.052267-21.031822-68.340622-68.343467-73.6 47.314489-21.026133 68.343467-47.3088 68.343467-89.361067 0-21.037511-10.518756-42.066489-26.2912-47.323022-15.775289-10.510222-31.536356-15.766756-47.3088-15.766755-26.2912 0-57.827556 10.507378-84.118756 26.282666-5.259378-15.775289-15.775289-26.282667-31.533511-26.282666-26.2912 0-57.838933 10.507378-89.389511 31.533511l21.034667 47.317333c-15.775289 94.631822-26.276978 157.715911-26.276978 178.747733s5.245156 36.795733 15.775289 47.311645c5.242311 10.513067 21.0176 15.772444 36.792889 15.772444z m131.424711-99.8912c0-15.761067 0-26.2912-10.515911-31.533511-5.259378-5.259378-15.772444-10.515911-31.533511-10.515911-10.515911 0-26.2912 5.256533-42.066489 10.515911-5.245156 21.031822-5.245156 42.052267-5.245156 57.824711 10.501689 10.515911 26.274133 10.515911 42.049422 10.515911s26.276978 0 36.795734-10.515911c10.515911-5.259378 10.515911-15.772444 10.515911-26.2912z m-26.288356-162.958222c-10.504533 0-21.020444 0-36.795733 5.256533 0 10.507378-5.256533 36.792889-15.772445 84.107378 26.2912 0 47.323022-5.256533 63.081245-15.772444 15.775289-10.518756 21.031822-26.285511 21.031822-42.057956 0-21.026133-10.513067-31.542044-31.544889-31.542044v0.008533zM700.384711 339.538489c15.997156 5.700267 25.167644 17.737956 30.424178 30.751289 1.629867 4.036267 4.2496 9.398044 2.682311 13.806933-2.113422 5.953422-7.045689 8.035556-10.845867 5.9648-2.5856-1.413689-3.367822-6.129778-4.514133-9.3184-3.495822-9.719467-9.622756-18.596978-21.1968-23.964444-11.630933-5.393067-22.394311-4.451556-32.193422-0.796445-2.909867 1.086578-7.048533 3.646578-9.821867 2.670934-4.206933-1.481956-5.882311-6.692978-2.6624-12.228267 1.999644-3.433244 8.698311-5.816889 10.874311-6.576356 11.204267-3.896889 24.3968-4.898133 37.253689-0.310044z" fill="#c6301d" p-id="8305"></path><path d="M715.104711 300.970667c24.701156 9.304178 39.881956 26.0864 49.299911 43.684977 2.921244 5.461333 7.480889 12.763022 5.640534 18.335289-2.480356 7.5264-9.6512 9.668267-15.598934 6.522311-4.053333-2.144711-5.771378-8.393956-7.870578-12.689066-6.385778-13.095822-16.628622-25.398044-34.645333-33.752178-18.104889-8.393956-34.170311-8.419556-48.466489-4.790044-4.246756 1.078044-10.1632 3.936711-14.446933 2.340977-6.491022-2.423467-9.622756-9.4208-5.421511-16.270222 2.602667-4.246756 12.387556-6.5792 15.576178-7.315911 16.375467-3.783111 36.078933-3.552711 55.933155 3.933867z" fill="#c6301d" p-id="8306"></path></svg>